# xmcd
#
# Track frame offsets: 
#        150
#        11586
#        28281
#        44835
#        66927
#        81976
#        97280
#        110429
#        131368
#        146192
#        163128
#
# Disc length: 2373 seconds
#
# Revision: 2
# Processed by: cddbd v1.5.1PL0 Copyright (c) Steve Scherf et al.
# Submitted via: ExactAudioCopy v0.95a5
#
DISCID=a709430b
DTITLE=Mighty Blue Kings - The Christmas Album
DYEAR=2000
DGENRE=Christmas/Holiday
TTITLE0=Christmas Time
TTITLE1=Jingle Bells
TTITLE2=Everyday Will Be Like A Holiday
TTITLE3=Just To Be With You
TTITLE4=Good Morning Blues
TTITLE5=White CHristmas
TTITLE6=All I Ask For Christmas
TTITLE7=Ole Santa
TTITLE8=They Say It's Christmas
TTITLE9=I've Got My Love To Keep Me Warm
TTITLE10=Silent Night
EXTD=
EXTT0=
EXTT1=
EXTT2=
EXTT3=
EXTT4=
EXTT5=
EXTT6=
EXTT7=
EXTT8=
EXTT9=
EXTT10=
PLAYORDER=
